M48
; DRILL file {KiCad (5.1.8)-1} date 04/20/21 10:51:09
; FORMAT={-:-/ absolute / inch / decimal}
; #@! TF.CreationDate,2021-04-20T10:51:09+02:00
; #@! TF.GenerationSoftware,Kicad,Pcbnew,(5.1.8)-1
; #@! TF.FileFunction,Plated,1,4,PTH
FMAT,2
INCH
T1C0.0157
T2C0.0236
T3C0.0394
T4C0.0433
T5C0.1260
%
G90
G05
T1
X1.9Y-2.6
X2.1Y-2.6
X2.1Y-2.75
X2.35Y-2.75
T2
X2.9Y-2.35
X3.0Y-2.35
X3.1Y-2.35
X3.2Y-2.35
X3.3Y-2.35
X3.4Y-2.35
X3.5Y-2.35
X3.6Y-2.35
T3
X3.7827Y-2.0425
X3.7827Y-2.1425
X3.7827Y-2.2425
X3.7827Y-2.3425
X2.1Y-1.45
X2.1Y-2.05
X2.2Y-1.45
X2.2Y-2.05
X2.3Y-1.45
X2.3Y-2.05
X2.4Y-1.45
X2.4Y-2.05
X2.5Y-1.45
X2.5Y-2.05
X2.6Y-1.45
X2.6Y-2.05
X2.7Y-1.45
X2.7Y-2.05
X2.8Y-1.45
X2.8Y-2.05
X2.9Y-1.45
X2.9Y-2.05
X3.0Y-1.45
X3.0Y-2.05
X3.1Y-1.45
X3.1Y-2.05
X3.2Y-1.45
X3.2Y-2.05
X3.3Y-1.45
X3.3Y-2.05
X3.4Y-1.45
X3.4Y-2.05
X3.5Y-1.45
X3.5Y-2.05
T4
X2.6Y-2.25
X2.6Y-2.35
X2.6Y-2.45
T5
X4.7Y-2.9
X1.55Y-2.9
X1.55Y-1.45
X4.65Y-1.45
T0
M30
