G04 #@! TF.GenerationSoftware,KiCad,Pcbnew,(5.1.8)-1*
G04 #@! TF.CreationDate,2021-04-20T10:50:44+02:00*
G04 #@! TF.ProjectId,PB170,50423137-302e-46b6-9963-61645f706362,rev?*
G04 #@! TF.SameCoordinates,Original*
G04 #@! TF.FileFunction,Copper,L4,Bot*
G04 #@! TF.FilePolarity,Positive*
%FSLAX46Y46*%
G04 Gerber Fmt 4.6, Leading zero omitted, Abs format (unit mm)*
G04 Created by KiCad (PCBNEW (5.1.8)-1) date 2021-04-20 10:50:44*
%MOMM*%
%LPD*%
G01*
G04 APERTURE LIST*
G04 #@! TA.AperFunction,ComponentPad*
%ADD10O,2.000000X1.905000*%
G04 #@! TD*
G04 #@! TA.AperFunction,ComponentPad*
%ADD11R,2.000000X1.905000*%
G04 #@! TD*
G04 #@! TA.AperFunction,ComponentPad*
%ADD12C,2.000000*%
G04 #@! TD*
G04 #@! TA.AperFunction,ComponentPad*
%ADD13O,2.000000X1.600000*%
G04 #@! TD*
G04 #@! TA.AperFunction,ComponentPad*
%ADD14O,1.600000X1.600000*%
G04 #@! TD*
G04 #@! TA.AperFunction,ComponentPad*
%ADD15R,1.600000X1.600000*%
G04 #@! TD*
G04 #@! TA.AperFunction,ComponentPad*
%ADD16C,6.400000*%
G04 #@! TD*
G04 #@! TA.AperFunction,ViaPad*
%ADD17C,0.800000*%
G04 #@! TD*
G04 #@! TA.AperFunction,Conductor*
%ADD18C,0.250000*%
G04 #@! TD*
G04 APERTURE END LIST*
D10*
X66040000Y-57150000D03*
X66040000Y-59690000D03*
D11*
X66040000Y-62230000D03*
D12*
X73660000Y-59690000D03*
X76200000Y-59690000D03*
X78740000Y-59690000D03*
X81280000Y-59690000D03*
X83820000Y-59690000D03*
X86360000Y-59690000D03*
X88900000Y-59690000D03*
X91440000Y-59690000D03*
D13*
X96080000Y-56960000D03*
X96080000Y-59500000D03*
X96080000Y-54420000D03*
X96080000Y-51880000D03*
D14*
X53340000Y-52070000D03*
X53340000Y-36830000D03*
X88900000Y-52070000D03*
X55880000Y-36830000D03*
X86360000Y-52070000D03*
X58420000Y-36830000D03*
X83820000Y-52070000D03*
X60960000Y-36830000D03*
X81280000Y-52070000D03*
X63500000Y-36830000D03*
X78740000Y-52070000D03*
X66040000Y-36830000D03*
X76200000Y-52070000D03*
X68580000Y-36830000D03*
X73660000Y-52070000D03*
X71120000Y-36830000D03*
X71120000Y-52070000D03*
X73660000Y-36830000D03*
X68580000Y-52070000D03*
X76200000Y-36830000D03*
X66040000Y-52070000D03*
X78740000Y-36830000D03*
X63500000Y-52070000D03*
X81280000Y-36830000D03*
X60960000Y-52070000D03*
X83820000Y-36830000D03*
X58420000Y-52070000D03*
X86360000Y-36830000D03*
X55880000Y-52070000D03*
D15*
X88900000Y-36830000D03*
D16*
X39370000Y-73660000D03*
X119380000Y-73660000D03*
X118110000Y-36830000D03*
X39370000Y-36830000D03*
D17*
X48260000Y-66040000D03*
X53340000Y-69850000D03*
X59690000Y-69850000D03*
X53340000Y-66040000D03*
D18*
X86360000Y-57150000D02*
X88900000Y-59690000D01*
X86360000Y-52070000D02*
X86360000Y-57150000D01*
X91630000Y-56960000D02*
X96080000Y-56960000D01*
X88900000Y-59690000D02*
X91630000Y-56960000D01*
X72534999Y-53195001D02*
X66040000Y-59690000D01*
X85234999Y-53195001D02*
X72534999Y-53195001D01*
X86360000Y-52070000D02*
X85234999Y-53195001D01*
X66040000Y-59690000D02*
X54610000Y-59690000D01*
X54610000Y-59690000D02*
X48260000Y-66040000D01*
X57150000Y-62230000D02*
X66040000Y-62230000D01*
X53340000Y-66040000D02*
X57150000Y-62230000D01*
M02*
