G04 #@! TF.GenerationSoftware,KiCad,Pcbnew,(5.1.8)-1*
G04 #@! TF.CreationDate,2021-04-20T10:50:44+02:00*
G04 #@! TF.ProjectId,PB170,50423137-302e-46b6-9963-61645f706362,rev?*
G04 #@! TF.SameCoordinates,Original*
G04 #@! TF.FileFunction,Soldermask,Top*
G04 #@! TF.FilePolarity,Negative*
%FSLAX46Y46*%
G04 Gerber Fmt 4.6, Leading zero omitted, Abs format (unit mm)*
G04 Created by KiCad (PCBNEW (5.1.8)-1) date 2021-04-20 10:50:44*
%MOMM*%
%LPD*%
G01*
G04 APERTURE LIST*
%ADD10O,2.102000X2.007000*%
%ADD11O,3.602000X3.602000*%
%ADD12C,2.102000*%
%ADD13O,2.102000X1.702000*%
%ADD14O,1.702000X1.702000*%
%ADD15C,6.502000*%
G04 APERTURE END LIST*
D10*
X66040000Y-57150000D03*
X66040000Y-59690000D03*
G36*
G01*
X67040000Y-63233500D02*
X65040000Y-63233500D01*
G75*
G02*
X64989000Y-63182500I0J51000D01*
G01*
X64989000Y-61277500D01*
G75*
G02*
X65040000Y-61226500I51000J0D01*
G01*
X67040000Y-61226500D01*
G75*
G02*
X67091000Y-61277500I0J-51000D01*
G01*
X67091000Y-63182500D01*
G75*
G02*
X67040000Y-63233500I-51000J0D01*
G01*
G37*
D11*
X49380000Y-59690000D03*
D12*
X73660000Y-59690000D03*
X76200000Y-59690000D03*
X78740000Y-59690000D03*
X81280000Y-59690000D03*
X83820000Y-59690000D03*
X86360000Y-59690000D03*
X88900000Y-59690000D03*
X91440000Y-59690000D03*
G36*
G01*
X60166124Y-72041000D02*
X59213876Y-72041000D01*
G75*
G02*
X58939000Y-71766124I0J274876D01*
G01*
X58939000Y-71188876D01*
G75*
G02*
X59213876Y-70914000I274876J0D01*
G01*
X60166124Y-70914000D01*
G75*
G02*
X60441000Y-71188876I0J-274876D01*
G01*
X60441000Y-71766124D01*
G75*
G02*
X60166124Y-72041000I-274876J0D01*
G01*
G37*
G36*
G01*
X60166124Y-73866000D02*
X59213876Y-73866000D01*
G75*
G02*
X58939000Y-73591124I0J274876D01*
G01*
X58939000Y-73013876D01*
G75*
G02*
X59213876Y-72739000I274876J0D01*
G01*
X60166124Y-72739000D01*
G75*
G02*
X60441000Y-73013876I0J-274876D01*
G01*
X60441000Y-73591124D01*
G75*
G02*
X60166124Y-73866000I-274876J0D01*
G01*
G37*
G36*
G01*
X53816124Y-72041000D02*
X52863876Y-72041000D01*
G75*
G02*
X52589000Y-71766124I0J274876D01*
G01*
X52589000Y-71188876D01*
G75*
G02*
X52863876Y-70914000I274876J0D01*
G01*
X53816124Y-70914000D01*
G75*
G02*
X54091000Y-71188876I0J-274876D01*
G01*
X54091000Y-71766124D01*
G75*
G02*
X53816124Y-72041000I-274876J0D01*
G01*
G37*
G36*
G01*
X53816124Y-73866000D02*
X52863876Y-73866000D01*
G75*
G02*
X52589000Y-73591124I0J274876D01*
G01*
X52589000Y-73013876D01*
G75*
G02*
X52863876Y-72739000I274876J0D01*
G01*
X53816124Y-72739000D01*
G75*
G02*
X54091000Y-73013876I0J-274876D01*
G01*
X54091000Y-73591124D01*
G75*
G02*
X53816124Y-73866000I-274876J0D01*
G01*
G37*
G36*
G01*
X47265500Y-72116000D02*
X46714500Y-72116000D01*
G75*
G02*
X46464000Y-71865500I0J250500D01*
G01*
X46464000Y-71364500D01*
G75*
G02*
X46714500Y-71114000I250500J0D01*
G01*
X47265500Y-71114000D01*
G75*
G02*
X47516000Y-71364500I0J-250500D01*
G01*
X47516000Y-71865500D01*
G75*
G02*
X47265500Y-72116000I-250500J0D01*
G01*
G37*
G36*
G01*
X47265500Y-73666000D02*
X46714500Y-73666000D01*
G75*
G02*
X46464000Y-73415500I0J250500D01*
G01*
X46464000Y-72914500D01*
G75*
G02*
X46714500Y-72664000I250500J0D01*
G01*
X47265500Y-72664000D01*
G75*
G02*
X47516000Y-72914500I0J-250500D01*
G01*
X47516000Y-73415500D01*
G75*
G02*
X47265500Y-73666000I-250500J0D01*
G01*
G37*
G36*
G01*
X47265500Y-67531000D02*
X46714500Y-67531000D01*
G75*
G02*
X46464000Y-67280500I0J250500D01*
G01*
X46464000Y-66779500D01*
G75*
G02*
X46714500Y-66529000I250500J0D01*
G01*
X47265500Y-66529000D01*
G75*
G02*
X47516000Y-66779500I0J-250500D01*
G01*
X47516000Y-67280500D01*
G75*
G02*
X47265500Y-67531000I-250500J0D01*
G01*
G37*
G36*
G01*
X47265500Y-69081000D02*
X46714500Y-69081000D01*
G75*
G02*
X46464000Y-68830500I0J250500D01*
G01*
X46464000Y-68329500D01*
G75*
G02*
X46714500Y-68079000I250500J0D01*
G01*
X47265500Y-68079000D01*
G75*
G02*
X47516000Y-68329500I0J-250500D01*
G01*
X47516000Y-68830500D01*
G75*
G02*
X47265500Y-69081000I-250500J0D01*
G01*
G37*
D13*
X96080000Y-56960000D03*
X96080000Y-59500000D03*
X96080000Y-54420000D03*
X96080000Y-51880000D03*
D14*
X53340000Y-52070000D03*
X53340000Y-36830000D03*
X88900000Y-52070000D03*
X55880000Y-36830000D03*
X86360000Y-52070000D03*
X58420000Y-36830000D03*
X83820000Y-52070000D03*
X60960000Y-36830000D03*
X81280000Y-52070000D03*
X63500000Y-36830000D03*
X78740000Y-52070000D03*
X66040000Y-36830000D03*
X76200000Y-52070000D03*
X68580000Y-36830000D03*
X73660000Y-52070000D03*
X71120000Y-36830000D03*
X71120000Y-52070000D03*
X73660000Y-36830000D03*
X68580000Y-52070000D03*
X76200000Y-36830000D03*
X66040000Y-52070000D03*
X78740000Y-36830000D03*
X63500000Y-52070000D03*
X81280000Y-36830000D03*
X60960000Y-52070000D03*
X83820000Y-36830000D03*
X58420000Y-52070000D03*
X86360000Y-36830000D03*
X55880000Y-52070000D03*
G36*
G01*
X88100000Y-35979000D02*
X89700000Y-35979000D01*
G75*
G02*
X89751000Y-36030000I0J-51000D01*
G01*
X89751000Y-37630000D01*
G75*
G02*
X89700000Y-37681000I-51000J0D01*
G01*
X88100000Y-37681000D01*
G75*
G02*
X88049000Y-37630000I0J51000D01*
G01*
X88049000Y-36030000D01*
G75*
G02*
X88100000Y-35979000I51000J0D01*
G01*
G37*
D15*
X39370000Y-73660000D03*
X119380000Y-73660000D03*
X118110000Y-36830000D03*
X39370000Y-36830000D03*
M02*
